<?xml version="1.0" encoding="utf-8"?>
<!-- Generator: Adobe Illustrator 16.0.3, SVG Export Plug-In . SVG Version: 6.00 Build 0)  -->
<!DOCTYPE svg PUBLIC "-//W3C//DTD SVG 1.1//EN" "http://www.w3.org/Graphics/SVG/1.1/DTD/svg11.dtd" [
	<!ENTITY ns_extend "http://ns.adobe.com/Extensibility/1.0/">
	<!ENTITY ns_ai "http://ns.adobe.com/AdobeIllustrator/10.0/">
	<!ENTITY ns_graphs "http://ns.adobe.com/Graphs/1.0/">
	<!ENTITY ns_vars "http://ns.adobe.com/Variables/1.0/">
	<!ENTITY ns_imrep "http://ns.adobe.com/ImageReplacement/1.0/">
	<!ENTITY ns_sfw "http://ns.adobe.com/SaveForWeb/1.0/">
	<!ENTITY ns_custom "http://ns.adobe.com/GenericCustomNamespace/1.0/">
	<!ENTITY ns_adobe_xpath "http://ns.adobe.com/XPath/1.0/">
]>
<svg version="1.1" id="Capa_1" xmlns:x="&ns_extend;" xmlns:i="&ns_ai;" xmlns:graph="&ns_graphs;"
	 xmlns="http://www.w3.org/2000/svg" xmlns:xlink="http://www.w3.org/1999/xlink" x="0px" y="0px" width="638px" height="78px"
	 viewBox="-62.092 -22.219 638 78" enable-background="new -62.092 -22.219 638 78" xml:space="preserve">
<metadata>
	<sfw  xmlns="&ns_sfw;">
		<slices></slices>
		<sliceSourceBounds  width="634.997" height="41.478" y="194.762" x="1" bottomLeftOrigin="true"></sliceSourceBounds>
	</sfw>
</metadata>
<g>
	<g>
		<path fill="#FFFFFF" d="M-28.036-3.008l-1.862-0.065l0.129,0.394c0.819,2.53,1.147,5.66,1.098,10.477l-0.058,10.075
			c0,5.733-0.245,7.886-1.142,10.01c-0.645,1.452-1.828,2.756-3.327,3.667c-1.934,1.112-4.347,1.699-6.976,1.699
			c-4.533,0-8.361-2.039-9.748-5.198c-0.886-2.059-1.088-3.688-1.088-8.723L-50.9,7.299c0.057-3.249,0.057-5.239,0.056-5.974
			c0.07-1.185,0.198-2.572,0.387-4.12l0.042-0.344l-2.112,0.132h-5.157l-1.588-0.058l-1.32,2.935h1.003
			c1.464,0,2.194,0.45,2.446,1.511c0.285,1.15,0.437,3.138,0.437,5.749l-0.057,10.23l-0.054,4.204
			c-0.058,5.64,0.837,8.846,3.194,11.44c1.183,1.251,2.734,2.253,4.596,2.977c2.323,1.034,5.073,1.539,8.409,1.539
			c4.43,0,8.135-0.996,11.012-2.96c3.466-2.405,5.238-5.87,5.574-10.903c0.11-1.424,0.166-3.029,0.166-4.773L-23.807,7.8
			c0.054-5.389,0.159-6.532,0.718-10.529l0.047-0.343l-1.89,0.063h-3.104V-3.008z"/>
		<path fill="#FFFFFF" d="M7.555,0.956l-1.58-0.066L6.112,1.29c0.746,2.191,1.19,6.43,1.19,11.335L7.253,24.07l0.107,2.541
			L-7.547,7.366c-1.892-2.445-2.61-3.517-4.264-6.369l-0.088-0.152l-2.616,0.108l-4.472,0.001l-1.4-0.057l-1.179,2.619h0.931
			c1.245,0,1.866,0.383,2.078,1.284c0.223,0.895,0.332,2.55,0.332,5.066l-0.051,15.214v4.169c0,1.151-0.13,2.241-0.287,3.459
			c-0.04,0.429-0.13,1.15-0.333,2.145l-0.075,0.373l1.754-0.117l2.726-0.001l1.69,0.125l-0.139-0.415
			c-0.695-2.042-1.093-5.573-1.093-9.688l0.046-16.198l-0.061-1.553l3.3,4.313l14.21,18.07c1.542,1.974,2.319,3.044,4.174,5.896
			l0.088,0.136l2.131-0.056h2.148l-0.026-0.315c-0.227-2.546-0.284-3.534-0.41-5.7l-0.027-0.442
			c-0.048-1.208-0.048-2.173-0.048-2.947L11.54,12.68c0-1.843,0.021-3.294,0.035-4.358c0.008-0.617,0.016-1.104,0.016-1.46
			c0-1.068,0.077-2.178,0.238-3.502c0.054-0.542,0.166-1.25,0.334-2.107l0.07-0.358l-1.751,0.06L7.555,0.956z"/>
		<path fill="#FFFFFF" d="M23.344,25.76l0.044-15.846c0-3.314,0.078-4.791,0.099-5.166c0.042-0.736,0.128-1.775,0.287-3.58
			l0.029-0.338l-1.812,0.125l-4.469,0.001l-1.4-0.058l-1.179,2.619h0.931c1.244,0,1.866,0.383,2.079,1.284
			c0.226,0.903,0.331,2.482,0.331,4.966l-0.05,15.941c0,4.453-0.047,4.922-0.334,7c-0.041,0.437-0.129,1.082-0.289,2.16
			l-0.054,0.355l1.687-0.115l3.495-0.001l1.684,0.124l-0.131-0.41C23.62,32.737,23.344,30.111,23.344,25.76z"/>
		<path fill="#FFFFFF" d="M55.904,0.954h-3.601l-1.95-0.062l0.125,0.393c0.278,0.854,0.322,1.21,0.322,1.844
			c0,1.734-0.571,3.965-1.907,7.458l-5.21,13.659l-1.958,5.003l-1.442-4.553L34.985,9.142c-1.119-3.22-1.646-4.975-1.82-6.074
			c-0.066-0.297-0.108-0.719-0.162-1.252l-0.104-0.978L30.95,0.954l-3.794,0.001L25.76,0.899l-1.183,2.619h0.93
			c1.103,0,1.555,0.334,2.194,1.628c0.679,1.471,1.301,3.071,1.872,4.579l7.803,21.359c0.811,2.295,0.95,2.81,1.239,4.604
			l0.041,0.264l1.452-0.124l2.085-0.001l1.278,0.129l0.05-0.258c0.473-2.383,0.651-2.925,2.106-6.437L53.761,9.55
			c0.293-0.678,0.728-1.648,1.346-3c0.581-1.256,1.016-2.173,1.292-2.747c0.29-0.534,0.726-1.306,1.298-2.32l0.09-0.161
			l-0.339-0.481L55.904,0.954z"/>
		<path fill="#FFFFFF" d="M81.362,29.422c-0.931,0.894-1.391,1.223-2.238,1.602c-0.566,0.26-1.221,0.457-1.856,0.555
			c-1.241,0.231-2.604,0.334-4.423,0.334c-2.717,0-3.761-0.217-4.459-0.923c-0.52-0.566-0.699-1.221-0.793-2.922l-0.006-0.082
			c-0.047-0.88-0.086-1.573-0.086-2.125v-6.996c1.722-0.078,2.482-0.078,3.704-0.078c1.51,0,3.05,0.046,4.718,0.143
			c0.473,0,1.172,0.047,2.139,0.141l0.349,0.035l-0.127-1.332l0.047-1.468l0.198-1.375l-1.119,0.093
			c-1.767,0.15-2.653,0.227-4.426,0.227h-5.443v-5.47l0.186-5.599c1.387-0.091,2.568-0.125,3.233-0.125
			c1.775,0,3.32,0.189,4.595,0.563c1.09,0.322,1.479,0.577,2.316,1.52l0.107,0.121l0.927-0.157l0.378-1.378l0.619-1.966l0.791-1.964
			l-1.744,0.054c-2.178,0.07-3.271,0.105-7.888,0.105h-6.694l-4.091-0.049l-1.173,2.613h0.928c1.244,0,1.865,0.383,2.077,1.286
			c0.224,0.887,0.328,2.465,0.328,4.965l-0.047,15.941c0,4.388-0.037,4.832-0.334,6.998c-0.051,0.503-0.15,1.251-0.286,2.162
			l-0.051,0.338l5.105-0.098l6.452,0.092c2.561,0.037,4.272,0.072,5.149,0.088c0.396,0.009,0.623,0.014,0.682,0.014
			c0.284,0,0.701,0.026,1.248,0.059l0.868,0.051l0.39-1.983l0.426-1.876l0.5-1.786l-1.028-0.483L81.362,29.422z"/>
		<path fill="#FFFFFF" d="M110.476,32.582c-1.407-1.415-3.01-3.519-5.361-7.036l-4.867-7.178l-0.91-1.232
			c2.182-1.157,3.457-2.055,4.495-3.154c1.297-1.389,2.008-3.334,2.008-5.476c0-2.472-0.909-4.58-2.563-5.939
			c-1.735-1.382-3.329-1.762-7.405-1.762c-1.072,0-2.18,0-3.433,0.045l-4.557,0.148L83.834,0.9l-1.178,2.615h0.933
			c1.239,0,1.861,0.383,2.08,1.283c0.222,0.906,0.327,2.486,0.327,4.967l-0.048,15.94c0,4.683-0.111,5.837-0.628,9.158l-0.057,0.358
			l1.696-0.116l3.495-0.001l1.678,0.124l-0.132-0.41c-0.671-2.075-0.945-4.702-0.945-9.063l0.048-15.845
			c0-3.206,0.035-3.963,0.106-5.473l0.023-0.471c1.644-0.22,2.361-0.259,3.146-0.259c3.862,0,6.169,2.139,6.169,5.724
			c0,2.709-1.353,4.908-3.529,5.738c-1.188,0.472-2.024,0.557-4.283,0.608l-0.239,0.006l-0.23,1.372l-0.376,1.57h0.852
			c1.069,0,1.817,0.376,3.421,2.597c2.916,3.983,4.551,6.461,6.732,10.201c0.498,0.834,0.818,1.452,1.012,1.837
			c0.182,0.317,0.326,0.577,0.43,0.771c0.091,0.168,0.157,0.287,0.217,0.38c0.14,0.181,0.327,0.472,0.56,0.844l0.092,0.146
			l2.185-0.153l3.667-0.094l1.499-0.065l0.097-0.743l-0.133-0.102C111.544,33.608,111.218,33.328,110.476,32.582z"/>
		<path fill="#FFFFFF" d="M126,14.945c-3.254-1.766-4.316-2.504-5.337-3.398c-1.01-0.929-1.547-2.146-1.547-3.52
			c0-2.924,2.266-4.891,5.637-4.891c2.763,0,4.411,0.847,6.075,3.122l0.104,0.141l0.992-0.146l0.282-1.195l0.712-2.259l0.652-1.635
			l-0.292-0.098c-2.544-0.85-3.556-1.08-5.412-1.224c-0.558-0.049-1.154-0.098-1.762-0.098c-6.977,0-11.662,3.99-11.662,9.93
			c0,2.304,0.834,4.443,2.349,6.02c1.365,1.365,2.078,1.833,6.379,4.164c2.846,1.546,4.146,2.495,5.158,3.754
			c0.77,0.953,1.192,2.195,1.192,3.496c0,3.292-2.795,5.775-6.5,5.775c-1.417,0-3.056-0.494-4.186-1.266
			c-0.869-0.545-1.272-1.049-2.122-2.38l-0.11-0.17l-1.055,0.225l-0.899,3.599l-0.615,1.957l0.259,0.095
			c2.436,0.896,3.372,1.085,5.331,1.273l0.335,0.024c0.549,0.041,1.07,0.081,1.562,0.081c7.427,0,12.817-4.688,12.817-11.145
			c0-2.073-0.621-3.976-1.798-5.509C131.206,17.975,129.983,17.092,126,14.945z"/>
		<path fill="#FFFFFF" d="M143.63,25.76l0.058-15.846c0-2.306,0.034-4.237,0.089-5.166c0.053-0.828,0.147-2,0.29-3.58l0.03-0.338
			l-1.815,0.125l-4.466,0.001l-1.401-0.058l-1.185,2.619h0.939c1.249,0,1.869,0.383,2.079,1.283
			c0.222,0.912,0.331,2.538,0.331,4.967l-0.051,15.941c0,4.427-0.048,4.898-0.337,7c-0.043,0.471-0.138,1.178-0.284,2.16
			l-0.053,0.355l1.685-0.115l3.498-0.001l1.681,0.124l-0.134-0.41C143.917,32.762,143.63,30.051,143.63,25.76z"/>
		<path fill="#FFFFFF" d="M174.495,2.685c-2.174-1.148-4.586-1.632-8.595-1.729c-1.208-0.049-2.663-0.049-4.346-0.049
			c-0.99,0-2.281,0.012-3.57,0.025c-1.289,0.012-2.576,0.024-3.561,0.024l-4.47,0.001l-1.401-0.058l-1.173,2.619h0.927
			c1.246,0,1.868,0.383,2.081,1.283c0.224,0.901,0.327,2.482,0.327,4.967l-0.051,15.941c0,4.48-0.048,4.946-0.335,7
			c-0.043,0.467-0.136,1.173-0.286,2.16l-0.053,0.355l1.688-0.115h3.521c1.767,0,3.167,0.053,4.294,0.098
			c0.705,0.026,1.279,0.05,1.728,0.05c6.212,0,10.389-1.237,13.959-4.135c4.199-3.354,6.606-8.647,6.606-14.524
			C181.782,10.304,179.059,5.101,174.495,2.685z M162.227,31.865c-1.886,0-3.57-0.161-4.494-0.432
			c-0.413-0.121-0.758-0.328-1.074-0.641c-0.514-0.56-0.696-1.244-0.79-2.927l-0.014-0.253c-0.043-0.717-0.084-1.395-0.084-1.953
			l0.05-15.739l0.138-5.588l1.511-0.078c1.945-0.099,3.121-0.158,4.32-0.158c5.666,0,8.649,0.986,11.007,3.637
			c2.127,2.417,3.297,5.997,3.297,10.08C176.095,26.613,170.913,31.865,162.227,31.865z"/>
		<path fill="#FFFFFF" d="M210.81,32.701c-1.2-2.41-2.189-4.656-2.788-6.321l-7.996-21.367c-0.815-2.102-1.005-2.851-1.483-4.901
			l-0.064-0.268l-1.326,0.239l-3.315,0.512l-0.048,0.186c-0.625,2.392-0.855,3.207-2.018,6.021l-7.992,19.771
			c-0.29,0.737-0.727,1.741-1.296,2.985l-0.34,0.711c-0.413,0.861-0.739,1.544-1.005,2.045c-0.239,0.478-0.623,1.206-1.15,2.171
			l-0.081,0.15l0.374,0.575l1.453-0.103l3.31-0.002l1.897,0.118l-0.113-0.395c-0.278-0.973-0.321-1.429-0.321-2.144
			c0-1.399,0.464-3.386,1.378-5.906l1.569-4.227l3.166-0.088h5.725l2.75,0.087l1.568,4.609c0.992,2.891,1.453,4.337,1.727,5.826
			c0.071,0.313,0.14,0.766,0.228,1.338l0.144,0.948l2.365-0.165l3.064-0.001l2.057,0.126l-0.292-0.474
			C211.428,33.907,211.238,33.575,210.81,32.701z M199.885,19.182l-2.107,0.084h-4.666l-2.438-0.084l4.824-12.772L199.885,19.182z"
			/>
		<path fill="#FFFFFF" d="M238.088,2.685c-2.176-1.149-4.59-1.632-8.6-1.729c-1.212-0.049-2.665-0.049-4.349-0.049
			c-0.985,0-2.274,0.012-3.563,0.025c-1.289,0.012-2.576,0.024-3.563,0.024l-4.47,0.001l-1.4-0.057l-1.178,2.619h0.927
			c1.246,0,1.868,0.382,2.081,1.283c0.223,0.903,0.334,2.528,0.334,4.968l-0.048,15.94c0,4.421-0.048,4.894-0.34,6.999
			c-0.046,0.48-0.15,1.205-0.286,2.162l-0.048,0.355l1.686-0.116h3.516c1.762,0,3.165,0.053,4.29,0.098
			c0.705,0.026,1.281,0.05,1.733,0.05c6.212,0,10.385-1.237,13.952-4.135c4.201-3.354,6.614-8.647,6.614-14.524
			C245.373,10.304,242.65,5.103,238.088,2.685z M225.817,31.865c-1.882,0-3.565-0.161-4.492-0.432
			c-0.42-0.123-0.763-0.329-1.074-0.642c-0.517-0.558-0.695-1.213-0.792-2.925l-0.025-0.469c-0.038-0.638-0.072-1.236-0.072-1.738
			l0.053-15.739l0.138-5.588l1.497-0.076c1.953-0.1,3.129-0.159,4.335-0.159c5.67,0,8.654,0.986,11.007,3.637
			c2.126,2.419,3.3,5.999,3.3,10.08C239.691,26.613,234.504,31.865,225.817,31.865z"/>
		<path fill="#FFFFFF" d="M277.034,7.182c-1.614-0.847-3.475-1.221-6.413-1.291c-0.897-0.035-1.977-0.035-3.226-0.035
			c-0.735,0-1.692,0.008-2.649,0.018c-0.952,0.008-1.907,0.017-2.641,0.017l-3.316,0.001l-1.088-0.042l-0.943,2.095h0.809
			c1.103,0,1.358,0.45,1.468,0.895c0.167,0.66,0.243,1.829,0.243,3.675l-0.041,11.821c0,3.248-0.025,3.636-0.248,5.186
			c-0.033,0.36-0.106,0.894-0.21,1.598l-0.056,0.355l1.342-0.087h2.607c1.313,0,2.353,0.04,3.188,0.073
			c0.523,0.019,0.948,0.034,1.284,0.034c4.627,0,7.738-0.923,10.4-3.084c3.136-2.494,4.934-6.441,4.934-10.831
			C282.48,12.871,280.445,8.985,277.034,7.182z M267.894,28.821c-1.415,0-2.656-0.115-3.312-0.306
			c-0.304-0.091-0.548-0.239-0.765-0.455c-0.372-0.406-0.499-0.883-0.57-2.118l-0.025-0.521c-0.022-0.411-0.043-0.79-0.043-1.116
			l0.041-11.684l0.097-4.082l1.326-0.063c1.263-0.062,2.095-0.102,2.928-0.102c4.238,0,6.362,0.699,8.111,2.668
			c1.569,1.785,2.431,4.423,2.431,7.431C278.113,24.953,274.293,28.821,267.894,28.821z"/>
		<path fill="#FFFFFF" d="M299.541,27.035c-0.679,0.65-1.015,0.892-1.632,1.168c-0.43,0.195-0.9,0.34-1.37,0.414
			c-0.912,0.17-1.92,0.245-3.267,0.245c-1.963,0-2.756-0.163-3.257-0.66c-0.369-0.41-0.497-0.886-0.567-2.124l-0.022-0.415
			c-0.024-0.485-0.047-0.888-0.047-1.223v-5.115c1.225-0.06,1.785-0.06,2.677-0.06c1.05,0,2.156,0.033,3.499,0.108
			c0.343,0,0.858,0.033,1.588,0.108l0.354,0.035l-0.11-1.078l0.031-1.076l0.164-1.112l-0.915,0.077
			c-1.313,0.111-1.972,0.167-3.29,0.167h-3.963v-3.974l0.137-4.09c0.91-0.061,1.78-0.097,2.322-0.097
			c1.268,0,2.44,0.146,3.389,0.423c0.797,0.234,1.079,0.421,1.695,1.104l0.108,0.121l0.758-0.135l0.754-2.512l0.63-1.564
			l-1.377,0.041c-1.674,0.054-2.438,0.079-5.88,0.079h-4.969l-3.082-0.037l-0.944,2.09h0.81c1.106,0,1.363,0.45,1.467,0.894
			c0.164,0.671,0.246,1.874,0.246,3.676l-0.036,11.821c0,3.316-0.043,3.636-0.253,5.184c-0.035,0.36-0.104,0.895-0.215,1.597
			l-0.056,0.341l3.884-0.07l4.781,0.064c1.912,0.03,3.185,0.057,3.835,0.072c0.286,0.006,0.452,0.01,0.498,0.01
			c0.221,0,0.553,0.021,1.001,0.048l0.632,0.036l0.297-1.537l0.321-1.385l0.377-1.386l-0.856-0.411L299.541,27.035z"/>
		<path fill="#FFFFFF" d="M344.864,29.774c-2.188,1.605-3.08,1.974-5.458,2.584c-1.909,0.451-3.461,0.661-4.888,0.661
			c-9.14,0-15.28-6.896-15.28-17.161c0-9.933,5.518-16.102,14.399-16.102c4.361,0,7.307,1.273,9.841,4.254l0.087,0.103h1.132
			l0.507-1.88l0.666-2.229l0.704-2.128l-0.277-0.088c-2.6-0.845-3.674-1.131-5.781-1.405c-1.682-0.232-3.18-0.341-4.713-0.341
			c-6.959,0-12.107,1.603-16.206,5.047c-4.487,3.819-7.058,9.486-7.058,15.55c0,7.966,4.126,15.184,10.509,18.382
			c2.794,1.41,6.398,2.156,10.425,2.156c1.699,0,3.937-0.152,5.703-0.389l0.077-0.014c1.302-0.218,2.329-0.391,4.913-1.058
			l0.162-0.041l0.541-1.886l0.608-1.831l0.576-1.546l-1.01-0.768L344.864,29.774z"/>
		<path fill="#FFFFFF" d="M364.836-0.4c-10.436,0-18.304,8.018-18.304,18.649c0,10.695,6.913,18.166,16.812,18.166
			c10.937,0,18.876-8.007,18.876-19.034C382.219,6.58,375.395-0.4,364.836-0.4z M364.448,33.074
			c-7.088,0-12.039-6.453-12.039-15.693c0-8.772,4.726-14.44,12.039-14.44c7.005,0,11.901,6.494,11.901,15.792
			C376.349,27.446,371.676,33.074,364.448,33.074z"/>
		<path fill="#FFFFFF" d="M395.367,14.945c-3.254-1.766-4.313-2.503-5.334-3.398c-1.011-0.929-1.545-2.145-1.545-3.52
			c0-2.924,2.264-4.891,5.633-4.891c2.762,0,4.411,0.847,6.08,3.122l0.102,0.141l0.991-0.146l0.29-1.195l0.709-2.262l0.638-1.634
			l-0.287-0.097c-2.529-0.85-3.541-1.079-5.409-1.224c-0.528-0.047-1.146-0.098-1.757-0.098c-6.977,0-11.664,3.99-11.664,9.93
			c0,2.307,0.836,4.444,2.353,6.019c1.347,1.357,2.062,1.826,6.375,4.165c2.838,1.544,4.14,2.492,5.158,3.755
			c0.77,0.953,1.194,2.194,1.194,3.495c0,3.292-2.795,5.775-6.502,5.775c-1.427,0-3.063-0.494-4.184-1.266
			c-0.871-0.55-1.296-1.076-2.124-2.38l-0.108-0.17l-1.054,0.225l-0.904,3.599l-0.615,1.957l0.261,0.095
			c2.438,0.896,3.373,1.086,5.333,1.273l0.334,0.024c0.552,0.041,1.072,0.081,1.569,0.081c7.423,0,12.81-4.688,12.81-11.145
			c0-2.072-0.62-3.976-1.796-5.509C400.574,17.972,399.349,17.087,395.367,14.945z"/>
		<path fill="#FFFFFF" d="M422.039,25.76l0.049-15.983l0.176-5.769c3.613,0.048,4.427,0.089,5.944,0.284
			c0.724,0.104,1.367,0.258,1.972,0.471c0.9,0.32,1.299,0.62,2.206,1.492l0.095,0.09l0.978-0.079l0.272-1.413l0.526-2.071
			l0.661-1.982l-3.978,0.082c-4.396,0.089-8.19,0.169-11.45,0.169c-3.251,0-6.896-0.082-11.109-0.179l-3.13-0.071l-0.165,1.904
			l-0.292,2.24l-0.123,1.369l1.046,0.071l0.092-0.088c0.84-0.789,1.257-1.073,2.124-1.438c1.445-0.582,2.787-0.763,5.967-0.801
			c0.304,0,0.668-0.01,1.091-0.021c0.512-0.012,1.112-0.028,1.806-0.03c0.015,0.494,0.026,0.947,0.036,1.352
			c0.012,0.6,0.023,1.098,0.051,1.468c0.051,1.501,0.051,2.477,0.051,2.943l-0.051,15.938l-0.003,0.221
			c-0.043,4.25-0.048,4.694-0.335,6.782c-0.039,0.401-0.128,1.103-0.328,2.149l-0.071,0.366l1.803-0.114l3.49-0.001l1.637,0.125
			l-0.133-0.412C422.293,32.84,422.039,30.301,422.039,25.76z"/>
		<path fill="#FFFFFF" d="M458.038,32.701c-1.206-2.43-2.193-4.672-2.785-6.321l-7.989-21.367c-0.804-2.072-0.998-2.828-1.487-4.901
			l-0.063-0.268l-3.435,0.581l-1.205,0.171l-0.048,0.186c-0.618,2.367-0.846,3.174-2.017,6.021l-7.997,19.771
			c-0.241,0.607-0.664,1.622-1.299,2.988l-0.202,0.43c-0.469,0.989-0.838,1.771-1.14,2.326c-0.184,0.368-0.531,1.042-1.149,2.169
			l-0.086,0.154l0.386,0.571l1.452-0.102l3.302-0.001l1.902,0.118l-0.112-0.394c-0.28-0.998-0.328-1.468-0.328-2.145
			c0-1.393,0.466-3.381,1.383-5.906l1.564-4.227l3.171-0.089h5.729l2.732,0.087l1.576,4.61c0.959,2.794,1.438,4.3,1.721,5.827
			c0.099,0.421,0.193,1.074,0.329,1.979l0.043,0.307l2.367-0.166l3.065-0.001l2.052,0.127l-0.289-0.475
			C458.651,33.892,458.467,33.564,458.038,32.701z M447.121,19.182l-2.107,0.084h-4.663l-2.438-0.084l4.825-12.772L447.121,19.182z"
			/>
		<path fill="#FFFFFF" d="M497.651,33.494c-1.651-1.655-3.505-4.084-6.204-8.12l-5.616-8.294l-1.084-1.461
			c2.549-1.353,4.031-2.389,5.231-3.648c1.484-1.609,2.303-3.843,2.303-6.294c0-2.839-1.043-5.263-2.942-6.833
			c-1.993-1.583-3.825-2.017-8.527-2.017c-1.233,0-2.507,0-3.953,0.055l-5.271,0.17l-4.646-0.115l-1.32,2.933h1.01
			c1.457,0,2.188,0.45,2.438,1.511c0.263,1.042,0.388,2.869,0.388,5.75l-0.059,18.408c0,5.155-0.094,6.541-0.719,10.585l-0.059,0.36
			l1.9-0.144h4.035l1.882,0.151l-0.134-0.413c-0.777-2.412-1.096-5.452-1.096-10.489l0.053-18.295c0-3.681,0.04-4.555,0.126-6.296
			l0.028-0.609c1.917-0.249,2.752-0.294,3.672-0.294c4.487,0,7.166,2.484,7.166,6.643c0,3.157-1.57,5.711-4.104,6.669
			c-1.367,0.55-2.339,0.652-4.96,0.708l-0.239,0.005l-0.258,1.558l-0.423,1.762h0.927c1.409,0,2.306,0.673,4,3.007
			c3.384,4.654,5.271,7.517,7.77,11.784c0.555,0.936,0.932,1.661,1.16,2.122c0.198,0.338,0.35,0.621,0.471,0.838
			c0.122,0.227,0.21,0.386,0.278,0.481c0.15,0.199,0.351,0.503,0.651,0.985l0.094,0.148l2.492-0.181l4.233-0.109l1.688-0.065
			l0.118-0.802l-0.138-0.104C498.916,34.718,498.539,34.394,497.651,33.494z"/>
		<path fill="#FFFFFF" d="M508.105,25.76l0.048-15.846c0-2.569,0.046-4.352,0.089-5.166c0.046-0.756,0.133-1.828,0.3-3.58
			l0.027-0.339l-1.814,0.124l-4.476,0.001l-1.396-0.057l-1.18,2.619h0.932c1.246,0,1.867,0.383,2.077,1.284
			c0.227,0.898,0.33,2.477,0.33,4.966l-0.046,15.941c0,4.448-0.048,4.918-0.336,7.001c-0.041,0.431-0.13,1.097-0.288,2.159
			l-0.05,0.355l1.685-0.115l3.5-0.001l1.673,0.124l-0.132-0.409C508.378,32.744,508.105,30.117,508.105,25.76z"/>
		<path fill="#FFFFFF" d="M530.455,3.421c3.764,0,6.308,1.1,8.504,3.679l0.083,0.103h1.021l0.444-1.659l0.579-1.934l0.623-1.874
			l-0.278-0.089c-2.224-0.729-3.153-0.977-5.015-1.222c-1.455-0.2-2.751-0.294-4.084-0.294c-6.029,0-10.5,1.393-14.063,4.382
			c-3.891,3.32-6.119,8.238-6.119,13.496c0,6.908,3.575,13.169,9.112,15.955c2.436,1.221,5.562,1.867,9.044,1.867
			c1.509,0,3.454-0.132,4.961-0.34c1.12-0.184,2.006-0.329,4.313-0.921l0.161-0.041l0.476-1.648l0.52-1.591l0.514-1.367
			l-0.922-0.695l-0.174,0.128c-1.895,1.379-2.665,1.698-4.713,2.229c-1.677,0.394-3.016,0.575-4.222,0.575
			c-7.894,0-13.196-5.958-13.196-14.827C518.028,8.75,522.788,3.421,530.455,3.421z"/>
		<path fill="#FFFFFF" d="M574.114,34.761c-0.523-0.854-0.701-1.181-1.142-2.06c-1.192-2.387-2.177-4.629-2.78-6.321l-7.997-21.367
			c-0.802-2.069-0.994-2.824-1.482-4.901l-0.063-0.268l-3.442,0.581l-1.202,0.171l-0.048,0.187c-0.61,2.36-0.839,3.167-2.013,6.02
			l-7.998,19.771c-0.305,0.779-0.752,1.813-1.294,2.987l-0.049,0.104c-0.542,1.138-0.97,2.036-1.301,2.651
			c-0.263,0.533-0.671,1.305-1.146,2.169l-0.084,0.154l0.385,0.572l1.448-0.103l3.309-0.001l1.9,0.118l-0.113-0.394
			c-0.276-0.967-0.32-1.424-0.32-2.145c0-1.422,0.461-3.411,1.371-5.906l1.571-4.227l3.168-0.089h5.724l2.734,0.087l1.576,4.609
			c0.982,2.874,1.441,4.317,1.721,5.827c0.076,0.326,0.146,0.783,0.239,1.374l0.145,0.91l2.361-0.165l3.063-0.001l2.05,0.128
			L574.114,34.761z M562.051,19.182l-2.103,0.084h-4.66l-2.441-0.084l4.822-12.772L562.051,19.182z"/>
	</g>
</g>
</svg>
